<?xml version="1.0" standalone="no"?>
<!DOCTYPE svg PUBLIC "-//W3C//DTD SVG 20010904//EN"
 "http://www.w3.org/TR/2001/REC-SVG-20010904/DTD/svg10.dtd">
<svg version="1.0" xmlns="http://www.w3.org/2000/svg"
 width="4167.000000pt" height="4167.000000pt" viewBox="0 0 4167.000000 4167.000000"
 preserveAspectRatio="xMidYMid meet">

<g transform="translate(0.000000,4167.000000) scale(0.100000,-0.100000)"
fill="#000000" stroke="none">
<path d="M10240 33965 l0 -2535 -4505 0 -4505 0 0 -10240 0 -10240 4505 0
4505 0 0 -2585 0 -2585 615 0 615 0 0 -310 0 -310 9625 0 9625 0 0 2895 0
2895 4865 0 4865 0 0 10240 0 10240 -4865 0 -4865 0 0 2535 0 2535 -10240 0
-10240 0 0 -2535z"/>
</g>
</svg>
